<svg width="154" height="40" viewBox="0 0 154 40" fill="none" xmlns="http://www.w3.org/2000/svg">
<path d="M26.4 0H13.6C6.08893 0 0 6.08893 0 13.6V26.4C0 33.9111 6.08893 40 13.6 40H26.4C33.9111 40 40 33.9111 40 26.4V13.6C40 6.08893 33.9111 0 26.4 0Z" fill="#564EEF"/>
<path d="M17 11H12C11.4477 11 11 11.4477 11 12V19C11 19.5523 11.4477 20 12 20H17C17.5523 20 18 19.5523 18 19V12C18 11.4477 17.5523 11 17 11Z" stroke="white" stroke-width="2" stroke-linecap="round" stroke-linejoin="round"/>
<path d="M28 11H23C22.4477 11 22 11.4477 22 12V15C22 15.5523 22.4477 16 23 16H28C28.5523 16 29 15.5523 29 15V12C29 11.4477 28.5523 11 28 11Z" stroke="white" stroke-width="2" stroke-linecap="round" stroke-linejoin="round"/>
<path d="M28 20H23C22.4477 20 22 20.4477 22 21V28C22 28.5523 22.4477 29 23 29H28C28.5523 29 29 28.5523 29 28V21C29 20.4477 28.5523 20 28 20Z" stroke="white" stroke-width="2" stroke-linecap="round" stroke-linejoin="round"/>
<path d="M17 24H12C11.4477 24 11 24.4477 11 25V28C11 28.5523 11.4477 29 12 29H17C17.5523 29 18 28.5523 18 28V25C18 24.4477 17.5523 24 17 24Z" stroke="white" stroke-width="2" stroke-linecap="round" stroke-linejoin="round"/>
<path d="M52.248 12.888L52.2 16.656H53.16C53.816 16.64 54.4 16.632 54.912 16.632C55.424 16.632 55.992 16.64 56.616 16.656H56.736C56.928 16.656 57.112 16.664 57.288 16.68C57.48 16.68 57.664 16.68 57.84 16.68C58.032 16.696 58.216 16.728 58.392 16.776C58.568 16.808 58.744 16.848 58.92 16.896C59.192 16.992 59.416 17.136 59.592 17.328C59.752 17.536 59.832 17.768 59.832 18.024C59.832 18.104 59.832 18.2 59.832 18.312C59.832 18.408 59.816 18.496 59.784 18.576C59.752 18.752 59.648 18.912 59.472 19.056C59.392 19.168 59.24 19.248 59.016 19.296C58.808 19.36 58.6 19.4 58.392 19.416C58.168 19.464 57.944 19.488 57.72 19.488H56.592L52.152 19.512L52.104 24.216L56.88 24.264H58.008C58.136 24.264 58.256 24.264 58.368 24.264C58.48 24.264 58.584 24.272 58.68 24.288C58.808 24.32 58.92 24.344 59.016 24.36C59.128 24.36 59.232 24.376 59.328 24.408C59.52 24.472 59.68 24.56 59.808 24.672C59.968 24.832 60.072 25 60.12 25.176C60.136 25.256 60.144 25.344 60.144 25.44C60.16 25.52 60.16 25.608 60.144 25.704C60.144 25.96 60.064 26.192 59.904 26.4C59.712 26.624 59.488 26.768 59.232 26.832C58.896 26.976 58.528 27.048 58.128 27.048C57.952 27.064 57.768 27.072 57.576 27.072C57.384 27.072 57.2 27.08 57.024 27.096H56.88C55.632 27.128 54.336 27.128 52.992 27.096C52.672 27.096 52.416 27.088 52.224 27.072C52.032 27.072 51.856 27.072 51.696 27.072C51.552 27.072 51.4 27.072 51.24 27.072C51.08 27.072 50.872 27.072 50.616 27.072C50.248 27.104 49.944 27.04 49.704 26.88C49.528 26.768 49.392 26.616 49.296 26.424C49.248 26.376 49.224 26.328 49.224 26.28C49.208 26.248 49.192 26.224 49.176 26.208C49.16 26.192 49.144 26.168 49.128 26.136C49.096 26.056 49.072 25.976 49.056 25.896C49.04 25.8 49.032 25.712 49.032 25.632C49.016 25.552 49 25.472 48.984 25.392C48.984 25.312 48.976 25.232 48.96 25.152V24.768C48.96 24.704 48.96 24.64 48.96 24.576C48.976 24.512 48.984 24.448 48.984 24.384V22.512L49.032 19.056V15.864C49.032 15.288 49.032 14.776 49.032 14.328C49.048 13.88 49.064 13.392 49.08 12.864V12.744C49.096 12.568 49.104 12.408 49.104 12.264C49.12 12.104 49.128 11.944 49.128 11.784C49.144 11.464 49.232 11.152 49.392 10.848C49.456 10.72 49.52 10.608 49.584 10.512C49.664 10.416 49.768 10.336 49.896 10.272C50.136 10.128 50.384 10.056 50.64 10.056C50.768 10.056 50.864 10.064 50.928 10.08V10.056C51.216 10.056 51.448 10.056 51.624 10.056C51.8 10.056 51.968 10.056 52.128 10.056C52.304 10.056 52.488 10.056 52.68 10.056C52.872 10.04 53.136 10.032 53.472 10.032C54.112 10.016 54.72 10.008 55.296 10.008C55.872 10.008 56.464 10.016 57.072 10.032H57.168C57.344 10.048 57.528 10.056 57.72 10.056C57.912 10.056 58.096 10.064 58.272 10.08C58.448 10.08 58.624 10.104 58.8 10.152C58.976 10.184 59.152 10.232 59.328 10.296C59.6 10.376 59.824 10.512 60 10.704C60.144 10.928 60.216 11.152 60.216 11.376C60.216 11.472 60.216 11.568 60.216 11.664C60.216 11.744 60.2 11.824 60.168 11.904C60.152 12.064 60.056 12.232 59.88 12.408C59.816 12.44 59.744 12.48 59.664 12.528C59.6 12.576 59.52 12.616 59.424 12.648C59.328 12.68 59.224 12.704 59.112 12.72C59.016 12.72 58.92 12.728 58.824 12.744C58.696 12.776 58.576 12.792 58.464 12.792C58.368 12.792 58.256 12.792 58.128 12.792H57.048L52.248 12.816V12.888ZM74.5399 21.408C74.5719 21.92 74.5879 22.408 74.5879 22.872C74.5879 23.32 74.5719 23.8 74.5399 24.312C74.5399 24.504 74.5399 24.72 74.5399 24.96C74.5399 25.2 74.5239 25.432 74.4919 25.656C74.4599 25.88 74.4039 26.088 74.3239 26.28C74.2439 26.472 74.1239 26.624 73.9639 26.736C73.7719 26.864 73.5559 26.952 73.3159 27C73.0759 27.032 72.8519 27.016 72.6439 26.952C72.4359 26.888 72.2519 26.768 72.0919 26.592C71.9479 26.416 71.8679 26.168 71.8519 25.848C71.8039 25.112 71.7799 24.376 71.7799 23.64C71.7799 23.272 71.7719 22.92 71.7559 22.584C71.7559 22.248 71.7639 21.776 71.7799 21.168C71.7799 20.864 71.7559 20.52 71.7079 20.136C71.6599 19.736 71.5399 19.456 71.3479 19.296C71.2039 19.168 71.0439 19.096 70.8679 19.08C70.6919 19.048 70.5159 19.064 70.3399 19.128C70.1799 19.192 70.0359 19.312 69.9079 19.488C69.7799 19.648 69.6919 19.856 69.6439 20.112C69.6439 20.32 69.6359 20.536 69.6199 20.76C69.6199 20.968 69.6279 21.168 69.6439 21.36C69.6599 21.872 69.6679 22.36 69.6679 22.824C69.6679 23.272 69.6599 23.752 69.6439 24.264C69.6279 24.472 69.6199 24.696 69.6199 24.936C69.6359 25.176 69.6359 25.416 69.6199 25.656C69.6039 25.88 69.5559 26.088 69.4759 26.28C69.4119 26.472 69.2919 26.624 69.1159 26.736C68.9239 26.864 68.7159 26.944 68.4919 26.976C68.2839 26.992 68.0839 26.96 67.8919 26.88C67.7159 26.784 67.5559 26.64 67.4119 26.448C67.2839 26.256 67.2119 26 67.1959 25.68C67.1639 25.312 67.1399 24.976 67.1239 24.672C67.1239 24.352 67.1239 24.016 67.1239 23.664C67.1239 23.296 67.1319 22.92 67.1479 22.536C67.1639 22.136 67.1559 21.752 67.1239 21.384C67.1239 21.272 67.1159 21.144 67.0999 21C67.0999 20.84 67.0919 20.68 67.0759 20.52C67.0759 20.36 67.0599 20.208 67.0279 20.064C67.0119 19.904 66.9799 19.776 66.9319 19.68C66.8039 19.456 66.5719 19.312 66.2359 19.248C65.9159 19.184 65.6439 19.208 65.4199 19.32C65.1959 19.432 65.0279 19.576 64.9159 19.752C64.8039 19.928 64.7239 20.12 64.6759 20.328C64.6279 20.536 64.6039 20.76 64.6039 21C64.6039 21.224 64.6039 21.44 64.6039 21.648C64.6039 22.688 64.6039 23.592 64.6039 24.36C64.6199 25.112 64.5399 25.72 64.3639 26.184C64.2839 26.424 64.1159 26.608 63.8599 26.736C63.6199 26.864 63.3559 26.928 63.0679 26.928C62.7959 26.928 62.5399 26.864 62.2999 26.736C62.0599 26.608 61.8999 26.408 61.8199 26.136C61.7719 25.96 61.7239 25.712 61.6759 25.392C61.6439 25.056 61.6199 24.688 61.6039 24.288C61.5879 23.888 61.5799 23.488 61.5799 23.088C61.5799 22.672 61.5799 22.296 61.5799 21.96V18.504C61.5639 18.136 61.5559 17.736 61.5559 17.304C61.5559 16.872 61.6199 16.48 61.7479 16.128C61.8599 15.824 62.0359 15.632 62.2759 15.552C62.5159 15.456 62.7639 15.416 63.0199 15.432C63.3079 15.432 63.5319 15.512 63.6919 15.672C63.8679 15.816 63.9959 16 64.0759 16.224C64.1559 16.432 64.2039 16.672 64.2199 16.944C64.2359 17.2 64.2519 17.448 64.2679 17.688C64.4439 17.288 64.6519 16.96 64.8919 16.704C65.1479 16.432 65.5079 16.256 65.9719 16.176C67.1559 15.952 68.0999 16.256 68.8039 17.088C69.1239 16.768 69.5319 16.504 70.0279 16.296C70.4119 16.152 70.8039 16.088 71.2039 16.104C71.6039 16.104 71.9799 16.176 72.3319 16.32C72.6999 16.464 73.0279 16.672 73.3159 16.944C73.6199 17.216 73.8599 17.544 74.0359 17.928C74.2759 18.44 74.4119 19.008 74.4439 19.632C74.4759 20.256 74.5079 20.848 74.5399 21.408ZM82.6284 16.2C83.0924 16.392 83.5164 16.672 83.9004 17.04C84.2844 17.392 84.6124 17.8 84.8844 18.264C85.1724 18.728 85.3884 19.232 85.5324 19.776C85.6924 20.304 85.7724 20.84 85.7724 21.384C85.7884 22.2 85.5964 22.968 85.1964 23.688C84.8124 24.408 84.1804 24.96 83.3004 25.344C82.6284 25.616 81.9324 25.824 81.2124 25.968C80.5084 26.096 79.7724 26.184 79.0044 26.232V30.624C79.0044 30.72 78.9884 30.808 78.9564 30.888C78.9404 30.968 78.9324 31.048 78.9324 31.128C78.9004 31.288 78.8604 31.432 78.8124 31.56C78.7804 31.688 78.7324 31.824 78.6684 31.968C78.6044 32.064 78.5404 32.152 78.4764 32.232C78.4124 32.312 78.3404 32.392 78.2604 32.472C77.8764 32.664 77.4764 32.704 77.0604 32.592C76.8044 32.576 76.5964 32.496 76.4364 32.352C76.2924 32.208 76.1884 32.056 76.1244 31.896C76.0604 31.736 76.0044 31.552 75.9564 31.344C75.9404 31.264 75.9244 31.184 75.9084 31.104C75.9084 31.04 75.9084 30.968 75.9084 30.888V17.52C75.9084 17.424 75.9084 17.328 75.9084 17.232C75.9244 17.12 75.9404 17.008 75.9564 16.896C75.9724 16.704 76.0204 16.512 76.1004 16.32C76.2444 15.92 76.5404 15.648 76.9884 15.504C77.4364 15.36 77.9404 15.296 78.5004 15.312C78.8844 15.328 79.2764 15.368 79.6764 15.432C80.0924 15.496 80.4844 15.576 80.8524 15.672C81.2364 15.752 81.5804 15.84 81.8844 15.936C82.1884 16.032 82.4364 16.12 82.6284 16.2ZM82.6764 21.384C82.7404 20.936 82.6844 20.56 82.5084 20.256C82.3484 19.936 82.1164 19.68 81.8124 19.488C81.5084 19.28 81.1564 19.12 80.7564 19.008C80.3724 18.896 79.9884 18.816 79.6044 18.768C79.5564 18.752 79.4764 18.744 79.3644 18.744C79.2684 18.744 79.1564 18.744 79.0284 18.744C79.0284 19.256 79.0284 19.752 79.0284 20.232C79.0444 20.696 79.0444 21.2 79.0284 21.744V23.352C79.3964 23.336 79.7804 23.296 80.1804 23.232C80.5964 23.168 80.9804 23.064 81.3324 22.92C81.6844 22.776 81.9804 22.584 82.2204 22.344C82.4764 22.104 82.6284 21.784 82.6764 21.384ZM90.3129 25.08C90.2969 25.16 90.2809 25.24 90.2649 25.32C90.2649 25.384 90.2649 25.456 90.2649 25.536L90.1209 26.04C90.0889 26.104 90.0649 26.144 90.0489 26.16L89.9769 26.304C89.8969 26.48 89.7529 26.624 89.5449 26.736C89.1609 26.928 88.7529 26.976 88.3209 26.88C88.0489 26.848 87.8329 26.768 87.6729 26.64C87.5129 26.528 87.4009 26.392 87.3369 26.232C87.2729 26.072 87.2249 25.912 87.1929 25.752C87.1449 25.592 87.1209 25.448 87.1209 25.32V11.88C87.1209 11.768 87.1209 11.672 87.1209 11.592C87.1369 11.496 87.1529 11.408 87.1689 11.328C87.1849 11.216 87.2009 11.12 87.2169 11.04C87.2489 10.96 87.2809 10.872 87.3129 10.776C87.3609 10.616 87.4489 10.488 87.5769 10.392C87.7689 10.248 87.9529 10.168 88.1289 10.152C88.2409 10.12 88.3449 10.104 88.4409 10.104C88.5369 10.088 88.6489 10.08 88.7769 10.08C89.0009 10.08 89.2569 10.144 89.5449 10.272C89.7689 10.4 89.9289 10.576 90.0249 10.8C90.1849 11.12 90.2649 11.416 90.2649 11.688C90.2809 11.848 90.2889 12.088 90.2889 12.408C90.3049 12.728 90.3129 12.968 90.3129 13.128V13.224C90.3449 13.736 90.3609 14.232 90.3609 14.712C90.3609 15.176 90.3529 15.688 90.3369 16.248C90.3369 16.792 90.3289 17.32 90.3129 17.832C90.3129 18.328 90.3129 18.824 90.3129 19.32V24.36C90.3129 24.424 90.3129 24.488 90.3129 24.552C90.3289 24.6 90.3369 24.656 90.3369 24.72C90.3369 24.88 90.3289 25 90.3129 25.08ZM99.9812 23.712C100.173 23.664 100.365 23.632 100.557 23.616C100.765 23.6 100.949 23.624 101.109 23.688C101.285 23.752 101.429 23.864 101.541 24.024C101.653 24.168 101.709 24.376 101.709 24.648C101.709 24.84 101.661 25.024 101.565 25.2C101.469 25.376 101.349 25.536 101.205 25.68C101.061 25.824 100.901 25.952 100.725 26.064C100.549 26.16 100.381 26.24 100.221 26.304C99.7572 26.512 99.2212 26.672 98.6132 26.784C98.0212 26.896 97.4052 26.936 96.7652 26.904C95.9012 26.872 95.0692 26.704 94.2692 26.4C93.4852 26.08 92.8692 25.56 92.4212 24.84C92.0052 24.136 91.7572 23.352 91.6772 22.488C91.5972 21.624 91.6372 20.808 91.7972 20.04C91.9732 19.112 92.2692 18.36 92.6852 17.784C93.1172 17.192 93.6292 16.72 94.2212 16.368C94.9412 15.952 95.7492 15.736 96.6452 15.72C97.5412 15.704 98.3972 15.88 99.2132 16.248C99.7572 16.488 100.245 16.816 100.677 17.232C101.109 17.632 101.437 18.12 101.661 18.696C101.725 18.84 101.773 19.016 101.805 19.224C101.853 19.432 101.885 19.656 101.901 19.896C101.917 20.12 101.917 20.344 101.901 20.568C101.885 20.792 101.845 20.992 101.781 21.168C101.685 21.456 101.565 21.68 101.421 21.84C101.277 22 101.093 22.12 100.869 22.2C100.645 22.28 100.373 22.336 100.053 22.368C99.7492 22.384 99.3812 22.4 98.9492 22.416C98.5652 22.432 98.2052 22.44 97.8692 22.44C97.5332 22.44 97.1892 22.44 96.8372 22.44C96.4852 22.424 96.1172 22.416 95.7332 22.416C95.3652 22.4 94.9492 22.384 94.4852 22.368C94.4372 22.688 94.4772 22.968 94.6052 23.208C94.7492 23.432 94.9412 23.624 95.1812 23.784C95.4212 23.928 95.6932 24.04 95.9972 24.12C96.3012 24.2 96.5972 24.248 96.8852 24.264C97.4292 24.296 97.9492 24.256 98.4452 24.144C98.9412 24.016 99.4532 23.872 99.9812 23.712ZM98.9492 19.056C98.6452 18.704 98.3252 18.448 97.9892 18.288C97.7332 18.176 97.4612 18.128 97.1732 18.144C96.9012 18.144 96.6372 18.184 96.3812 18.264C95.9172 18.376 95.5252 18.616 95.2052 18.984C95.1732 19.016 95.1172 19.096 95.0372 19.224C94.9572 19.336 94.8772 19.456 94.7972 19.584C94.7332 19.712 94.6852 19.832 94.6532 19.944C94.6212 20.056 94.6372 20.112 94.7012 20.112H99.4052C99.3892 19.888 99.3492 19.704 99.2852 19.56C99.2212 19.4 99.1092 19.232 98.9492 19.056ZM105.815 16.896C106.295 16.656 106.799 16.488 107.327 16.392C107.855 16.28 108.375 16.256 108.887 16.32C109.415 16.368 109.919 16.504 110.399 16.728C110.879 16.936 111.327 17.24 111.743 17.64C112.159 18.056 112.479 18.512 112.703 19.008C112.927 19.504 113.087 20.056 113.183 20.664C113.247 21.08 113.351 21.464 113.495 21.816C113.639 22.168 113.791 22.52 113.951 22.872C114.127 23.224 114.287 23.576 114.431 23.928C114.591 24.28 114.719 24.648 114.815 25.032C114.895 25.4 114.863 25.76 114.719 26.112C114.591 26.448 114.319 26.656 113.903 26.736C113.663 26.784 113.431 26.768 113.207 26.688C112.999 26.592 112.807 26.464 112.631 26.304C112.455 26.128 112.295 25.944 112.151 25.752C112.023 25.544 111.903 25.352 111.791 25.176C111.423 25.656 111.023 26.032 110.591 26.304C110.159 26.56 109.639 26.728 109.031 26.808C108.519 26.872 108.031 26.888 107.567 26.856C107.103 26.824 106.607 26.736 106.079 26.592C105.391 26.416 104.823 26.112 104.375 25.68C103.943 25.232 103.607 24.72 103.367 24.144C103.143 23.552 103.023 22.92 103.007 22.248C102.991 21.576 103.071 20.912 103.247 20.256C103.471 19.392 103.807 18.688 104.255 18.144C104.703 17.6 105.223 17.184 105.815 16.896ZM106.415 19.704C106.191 19.928 106.015 20.192 105.887 20.496C105.759 20.8 105.679 21.12 105.647 21.456C105.631 21.792 105.663 22.128 105.743 22.464C105.823 22.8 105.951 23.096 106.127 23.352C106.287 23.576 106.559 23.768 106.943 23.928C107.327 24.072 107.727 24.16 108.143 24.192C108.623 24.224 109.039 24.096 109.391 23.808C109.759 23.52 110.031 23.16 110.207 22.728C110.399 22.28 110.487 21.808 110.471 21.312C110.455 20.8 110.319 20.336 110.063 19.92C109.871 19.616 109.615 19.392 109.295 19.248C108.991 19.104 108.663 19.032 108.311 19.032C107.959 19.016 107.607 19.072 107.255 19.2C106.919 19.312 106.639 19.48 106.415 19.704ZM127.3 25.176C127.332 25.256 127.348 25.376 127.348 25.536C127.348 25.68 127.348 25.8 127.348 25.896C127.348 26.024 127.324 26.144 127.276 26.256C127.228 26.368 127.164 26.472 127.084 26.568C126.94 26.76 126.732 26.904 126.46 27C126.076 27.128 125.716 27.192 125.38 27.192C125.204 27.208 125.02 27.216 124.828 27.216C124.636 27.216 124.444 27.232 124.252 27.264H124.156C122.924 27.28 121.652 27.28 120.34 27.264C120.02 27.248 119.66 27.248 119.26 27.264C118.86 27.296 118.468 27.288 118.084 27.24C117.7 27.208 117.348 27.12 117.028 26.976C116.724 26.816 116.508 26.568 116.38 26.232C116.348 26.152 116.324 26.08 116.308 26.016C116.292 25.936 116.284 25.856 116.284 25.776C116.22 25.232 116.196 24.696 116.212 24.168C116.228 23.64 116.236 23.12 116.236 22.608L116.284 19.128V15.912C116.284 15.336 116.284 14.824 116.284 14.376C116.3 13.928 116.316 13.432 116.332 12.888V12.768C116.348 12.608 116.356 12.448 116.356 12.288C116.372 12.128 116.38 11.968 116.38 11.808C116.412 11.44 116.5 11.128 116.644 10.872C116.74 10.632 116.908 10.44 117.148 10.296C117.356 10.152 117.604 10.08 117.892 10.08C118.004 10.08 118.108 10.088 118.204 10.104C118.316 10.104 118.42 10.112 118.516 10.128C118.612 10.144 118.7 10.176 118.78 10.224C118.876 10.272 118.972 10.336 119.068 10.416C119.164 10.528 119.252 10.664 119.332 10.824C119.396 11 119.436 11.176 119.452 11.352C119.468 11.464 119.484 11.568 119.5 11.664C119.516 11.76 119.524 11.856 119.524 11.952C119.492 12.048 119.476 12.144 119.476 12.24C119.476 12.336 119.476 12.424 119.476 12.504V12.936L119.38 24.24L124.132 24.288H125.26C125.356 24.288 125.46 24.296 125.572 24.312C125.684 24.312 125.796 24.32 125.908 24.336C126.036 24.352 126.148 24.368 126.244 24.384C126.34 24.4 126.436 24.424 126.532 24.456C126.708 24.504 126.852 24.584 126.964 24.696C127.14 24.856 127.252 25.016 127.3 25.176ZM131.69 17.904C131.69 18.352 131.69 18.856 131.69 19.416C131.706 19.976 131.714 20.56 131.714 21.168C131.714 21.76 131.714 22.352 131.714 22.944C131.714 23.52 131.706 24.056 131.69 24.552C131.674 24.792 131.65 25.056 131.618 25.344C131.586 25.616 131.522 25.872 131.426 26.112C131.33 26.352 131.178 26.552 130.97 26.712C130.778 26.856 130.514 26.92 130.178 26.904C129.682 26.872 129.322 26.656 129.098 26.256C128.89 25.856 128.77 25.296 128.738 24.576C128.738 24.208 128.73 23.784 128.714 23.304C128.714 22.824 128.706 22.336 128.69 21.84C128.69 21.344 128.69 20.864 128.69 20.4C128.69 19.92 128.69 19.488 128.69 19.104C128.69 18.88 128.682 18.608 128.666 18.288C128.666 17.968 128.674 17.64 128.69 17.304C128.706 16.968 128.746 16.648 128.81 16.344C128.874 16.024 128.978 15.76 129.122 15.552C129.234 15.424 129.394 15.328 129.602 15.264C129.81 15.184 130.026 15.144 130.25 15.144C130.49 15.144 130.714 15.184 130.922 15.264C131.146 15.344 131.306 15.456 131.402 15.6C131.466 15.696 131.514 15.832 131.546 16.008C131.578 16.184 131.602 16.384 131.618 16.608C131.65 16.816 131.666 17.04 131.666 17.28C131.682 17.504 131.69 17.712 131.69 17.904ZM130.778 13.056C130.282 13.184 129.866 13.136 129.53 12.912C129.21 12.672 129.01 12.32 128.93 11.856C128.866 11.52 128.89 11.224 129.002 10.968C129.114 10.712 129.282 10.52 129.506 10.392C129.73 10.248 129.986 10.184 130.274 10.2C130.562 10.216 130.85 10.328 131.138 10.536C131.41 10.728 131.602 10.952 131.714 11.208C131.842 11.464 131.882 11.712 131.834 11.952C131.802 12.192 131.698 12.416 131.522 12.624C131.346 12.816 131.098 12.96 130.778 13.056ZM133.481 18.432C133.481 18.064 133.473 17.672 133.457 17.256C133.457 16.84 133.529 16.464 133.673 16.128C133.801 15.824 134.009 15.608 134.297 15.48C134.601 15.336 134.897 15.304 135.185 15.384C135.473 15.432 135.697 15.52 135.857 15.648C136.017 15.776 136.129 15.928 136.193 16.104C136.273 16.264 136.321 16.456 136.337 16.68C136.353 16.888 136.369 17.096 136.385 17.304C136.545 17.016 136.745 16.784 136.985 16.608C137.225 16.432 137.473 16.288 137.729 16.176C137.985 16.064 138.225 15.984 138.449 15.936C138.689 15.888 138.873 15.864 139.001 15.864C139.609 15.864 140.209 16 140.801 16.272C141.409 16.528 141.913 16.896 142.313 17.376C142.537 17.664 142.705 17.968 142.817 18.288C142.945 18.592 143.033 18.912 143.081 19.248C143.145 19.584 143.185 19.928 143.201 20.28C143.217 20.616 143.233 20.96 143.249 21.312C143.329 22.336 143.329 23.352 143.249 24.36C143.233 24.568 143.225 24.808 143.225 25.08C143.225 25.352 143.201 25.624 143.153 25.896C143.121 26.152 143.049 26.384 142.937 26.592C142.841 26.784 142.673 26.904 142.433 26.952C142.097 27.032 141.817 27.048 141.593 27C141.385 26.968 141.217 26.896 141.089 26.784C140.961 26.672 140.865 26.528 140.801 26.352C140.737 26.176 140.681 25.976 140.633 25.752C140.601 25.576 140.569 25.376 140.537 25.152C140.521 24.912 140.505 24.672 140.489 24.432C140.489 24.192 140.481 23.96 140.465 23.736C140.465 23.496 140.465 23.28 140.465 23.088C140.465 22.784 140.457 22.448 140.441 22.08C140.425 21.712 140.425 21.368 140.441 21.048C140.441 20.296 140.241 19.728 139.841 19.344C139.457 18.944 138.929 18.776 138.257 18.84C137.745 18.904 137.297 19.112 136.913 19.464C136.529 19.8 136.345 20.24 136.361 20.784C136.361 20.992 136.361 21.184 136.361 21.36C136.361 21.536 136.353 21.712 136.337 21.888C136.337 22.064 136.337 22.256 136.337 22.464C136.337 22.672 136.337 22.904 136.337 23.16C136.337 23.688 136.337 24.248 136.337 24.84C136.337 25.416 136.265 25.888 136.121 26.256C135.993 26.64 135.777 26.904 135.473 27.048C135.169 27.192 134.809 27.152 134.393 26.928C134.217 26.832 134.073 26.704 133.961 26.544C133.865 26.368 133.785 26.184 133.721 25.992C133.673 25.8 133.641 25.608 133.625 25.416C133.609 25.208 133.593 25.016 133.577 24.84C133.529 24.312 133.497 23.824 133.481 23.376C133.481 22.912 133.481 22.416 133.481 21.888V18.432ZM149.422 21.48C149.774 21.848 150.03 22.12 150.19 22.296C150.366 22.456 150.486 22.576 150.55 22.656C150.63 22.736 150.686 22.784 150.718 22.8C150.75 22.816 150.806 22.864 150.886 22.944C150.966 23.024 151.094 23.152 151.27 23.328C151.446 23.488 151.71 23.752 152.062 24.12C152.35 24.408 152.582 24.744 152.758 25.128C152.95 25.496 152.934 25.896 152.71 26.328C152.582 26.552 152.438 26.712 152.278 26.808C152.118 26.888 151.942 26.92 151.75 26.904C151.574 26.888 151.382 26.832 151.174 26.736C150.982 26.64 150.79 26.52 150.598 26.376C150.23 26.104 149.878 25.792 149.542 25.44C149.206 25.072 148.934 24.792 148.726 24.6C148.582 24.456 148.494 24.36 148.462 24.312C148.43 24.28 148.398 24.256 148.366 24.24C148.334 24.208 148.302 24.176 148.27 24.144C148.158 24.032 148.038 23.92 147.91 23.808C147.782 23.696 147.654 23.576 147.526 23.448V24.384C147.526 24.56 147.534 24.688 147.55 24.768C147.55 24.928 147.542 25.048 147.526 25.128C147.478 25.304 147.454 25.472 147.454 25.632C147.438 25.712 147.422 25.792 147.406 25.872C147.39 25.936 147.366 26.008 147.334 26.088C147.318 26.12 147.302 26.144 147.286 26.16C147.286 26.176 147.286 26.2 147.286 26.232C147.27 26.264 147.254 26.288 147.238 26.304C147.238 26.32 147.23 26.344 147.214 26.376C147.134 26.536 147.006 26.688 146.83 26.832C146.526 27.008 146.15 27.056 145.702 26.976C145.462 26.928 145.278 26.84 145.15 26.712C145.006 26.616 144.91 26.48 144.862 26.304C144.83 26.224 144.798 26.144 144.766 26.064C144.75 25.968 144.726 25.88 144.694 25.8C144.662 25.72 144.646 25.648 144.646 25.584C144.646 25.504 144.646 25.44 144.646 25.392V11.736C144.646 11.64 144.646 11.544 144.646 11.448C144.646 11.352 144.654 11.256 144.67 11.16C144.686 11.064 144.702 10.976 144.718 10.896C144.75 10.8 144.782 10.712 144.814 10.632C144.878 10.472 144.958 10.344 145.054 10.248C145.134 10.168 145.214 10.112 145.294 10.08C145.39 10.032 145.478 9.99199 145.558 9.95999C145.638 9.94399 145.726 9.93599 145.822 9.93599C145.934 9.91999 146.038 9.91199 146.134 9.91199C146.358 9.91199 146.582 9.97599 146.806 10.104C147.014 10.248 147.166 10.432 147.262 10.656C147.39 10.96 147.454 11.256 147.454 11.544C147.47 11.704 147.486 11.952 147.502 12.288C147.518 12.608 147.526 12.848 147.526 13.008V13.104C147.542 13.632 147.55 14.136 147.55 14.616C147.55 15.096 147.55 15.616 147.55 16.176C147.534 16.736 147.526 17.272 147.526 17.784C147.526 18.28 147.526 18.776 147.526 19.272V19.536C147.654 19.408 147.782 19.288 147.91 19.176C148.038 19.064 148.158 18.944 148.27 18.816C148.334 18.768 148.398 18.712 148.462 18.648L148.726 18.384C148.934 18.176 149.206 17.896 149.542 17.544C149.878 17.176 150.23 16.856 150.598 16.584C150.998 16.296 151.382 16.12 151.75 16.056C152.134 15.992 152.454 16.184 152.71 16.632C152.934 17.064 152.95 17.472 152.758 17.856C152.582 18.224 152.35 18.568 152.062 18.888C151.71 19.256 151.446 19.528 151.27 19.704C151.094 19.864 150.966 19.984 150.886 20.064C150.806 20.128 150.75 20.168 150.718 20.184C150.686 20.2 150.63 20.248 150.55 20.328C150.486 20.392 150.366 20.512 150.19 20.688C150.03 20.848 149.774 21.112 149.422 21.48Z" fill="#564EEF"/>
</svg>
